<svg width="36" height="36" viewBox="0 0 36 36" fill="none" xmlns="http://www.w3.org/2000/svg">
<rect width="36" height="36" rx="8" fill="white"/>
<path d="M8 0C3.58172 0 0 3.58172 0 8V28C0 32.4183 3.58172 36 8 36H24V30H19C18.4477 30 18 29.5523 18 29V25C18 24.4477 18.4477 24 19 24H24V19C24 18.4477 24.4477 18 25 18H29C29.5523 18 30 18.4477 30 19V24H36V8C36 3.58172 32.4183 0 28 0H8Z" fill="#FF3C3C"/>
<path d="M35.748 30H30V35.748C32.8112 35.0244 35.0244 32.8112 35.748 30Z" fill="#FF3C3C"/>
<path d="M35.748 30C35.0244 32.8112 32.8112 35.0244 30 35.748V30H35.748Z" fill="#FF3C3C"/>
<path d="M35.748 30C35.0244 32.8112 32.8112 35.0244 30 35.748V30H35.748Z" fill="#0082FC"/>
</svg>
